# xmcd
#
# Track frame offsets: 
#        150
#        37547
#        78472
#        89285
#        119647
#        133275
#        162420
#        184237
#        214532
#        223047
#        263512
#
# Disc length: 3758 seconds
#
# Revision: 0
# Processed by: cddbd v1.4PL0 Copyright (c) Steve Scherf et al.
# Submitted via: ExactAudioCopy v0.90b3
#
DISCID=970eac0b
DTITLE=IVAN MLADEK  - SWEET SUE
DYEAR=2000
DGENRE=Speech
TTITLE0=Zivotopis
TTITLE1=Slavy dcera
TTITLE2=Uryvek z Babicky
TTITLE3=Na starem belidle
TTITLE4=Kulturni zazitky
TTITLE5=Lomikarovy dcery
TTITLE6=Na Karlstejne
TTITLE7=Zkouseni z dejepisu
TTITLE8=Podekovani Ivanu Mladkovi
TTITLE9=Brcko
TTITLE10=Kdyz jsem ja slouzil
EXTD=
EXTT0=
EXTT1=
EXTT2=
EXTT3=
EXTT4=
EXTT5=
EXTT6=
EXTT7=
EXTT8=
EXTT9=
EXTT10=
PLAYORDER=
